<svg
      width="41"
      height="36"
      viewBox="0 0 41 36"
      fill="none"
      xmlns="http://www.w3.org/2000/svg"
    >
      <rect
        width="41"
        height="36"
        rx="3"
        fill="#814ae0"
      />
      <path
        d="M13.168 19.918H8.82031V17.1758H13.168C13.8398 17.1758 14.3867 17.0664 14.8086 16.8477C15.2305 16.6211 15.5391 16.3086 15.7344 15.9102C15.9297 15.5117 16.0273 15.0625 16.0273 14.5625C16.0273 14.0547 15.9297 13.582 15.7344 13.1445C15.5391 12.707 15.2305 12.3555 14.8086 12.0898C14.3867 11.8242 13.8398 11.6914 13.168 11.6914H10.0391V26H6.52344V8.9375H13.168C14.5039 8.9375 15.6484 9.17969 16.6016 9.66406C17.5625 10.1406 18.2969 10.8008 18.8047 11.6445C19.3125 12.4883 19.5664 13.4531 19.5664 14.5391C19.5664 15.6406 19.3125 16.5938 18.8047 17.3984C18.2969 18.2031 17.5625 18.8242 16.6016 19.2617C15.6484 19.6992 14.5039 19.918 13.168 19.918ZM30.875 21.5352C30.875 21.2305 30.8281 20.957 30.7344 20.7148C30.6484 20.4648 30.4844 20.2383 30.2422 20.0352C30 19.8242 29.6602 19.6172 29.2227 19.4141C28.7852 19.2109 28.2188 19 27.5234 18.7812C26.75 18.5312 26.0156 18.25 25.3203 17.9375C24.6328 17.625 24.0234 17.2617 23.4922 16.8477C22.9688 16.4258 22.5547 15.9375 22.25 15.3828C21.9531 14.8281 21.8047 14.1836 21.8047 13.4492C21.8047 12.7383 21.9609 12.0938 22.2734 11.5156C22.5859 10.9297 23.0234 10.4297 23.5859 10.0156C24.1484 9.59375 24.8125 9.26953 25.5781 9.04297C26.3516 8.81641 27.1992 8.70312 28.1211 8.70312C29.3789 8.70312 30.4766 8.92969 31.4141 9.38281C32.3516 9.83594 33.0781 10.457 33.5938 11.2461C34.1172 12.0352 34.3789 12.9375 34.3789 13.9531H30.8867C30.8867 13.4531 30.7812 13.0156 30.5703 12.6406C30.3672 12.2578 30.0547 11.957 29.6328 11.7383C29.2188 11.5195 28.6953 11.4102 28.0625 11.4102C27.4531 11.4102 26.9453 11.5039 26.5391 11.6914C26.1328 11.8711 25.8281 12.1172 25.625 12.4297C25.4219 12.7344 25.3203 13.0781 25.3203 13.4609C25.3203 13.75 25.3906 14.0117 25.5312 14.2461C25.6797 14.4805 25.8984 14.6992 26.1875 14.9023C26.4766 15.1055 26.832 15.2969 27.2539 15.4766C27.6758 15.6562 28.1641 15.832 28.7188 16.0039C29.6484 16.2852 30.4648 16.6016 31.168 16.9531C31.8789 17.3047 32.4727 17.6992 32.9492 18.1367C33.4258 18.5742 33.7852 19.0703 34.0273 19.625C34.2695 20.1797 34.3906 20.8086 34.3906 21.5117C34.3906 22.2539 34.2461 22.918 33.957 23.5039C33.668 24.0898 33.25 24.5859 32.7031 24.9922C32.1562 25.3984 31.5039 25.707 30.7461 25.918C29.9883 26.1289 29.1406 26.2344 28.2031 26.2344C27.3594 26.2344 26.5273 26.125 25.707 25.9062C24.8867 25.6797 24.1406 25.3398 23.4688 24.8867C22.8047 24.4336 22.2734 23.8555 21.875 23.1523C21.4766 22.4492 21.2773 21.6172 21.2773 20.6562H24.8047C24.8047 21.1875 24.8867 21.6367 25.0508 22.0039C25.2148 22.3711 25.4453 22.668 25.7422 22.8945C26.0469 23.1211 26.4062 23.2852 26.8203 23.3867C27.2422 23.4883 27.7031 23.5391 28.2031 23.5391C28.8125 23.5391 29.3125 23.4531 29.7031 23.2812C30.1016 23.1094 30.3945 22.8711 30.582 22.5664C30.7773 22.2617 30.875 21.918 30.875 21.5352Z"
        fill="white"
      />
    </svg>